<?xml version="1.0" encoding="UTF-8"?>
<!DOCTYPE svg PUBLIC "-//W3C//DTD SVG 1.1//EN" "http://www.w3.org/Graphics/SVG/1.1/DTD/svg11.dtd">
<svg version="1.1" xmlns="http://www.w3.org/2000/svg" xmlns:xlink="http://www.w3.org/1999/xlink" x="0" y="0" width="291" height="251" viewBox="0, 0, 291, 251">
  <defs>
    <clipPath id="Clip_1">
      <path d="M0.06,0.796 L290.694,0.796 L290.694,250.94 L0.06,250.94 z"/>
    </clipPath>
  </defs>
  <g id="Layer_1">
    <g clip-path="url(#Clip_1)">
      <path d="M196.476,1.081 C195,0.343 193.793,1.089 193.793,2.739 L193.793,205.655 L282.645,250.081 C287.072,252.295 290.694,250.056 290.694,245.106 L290.694,49.778 C290.694,48.805 290.144,47.915 289.274,47.48 L196.476,1.081" fill="#30F89E"/>
      <path d="M96.902,157.269 L192.231,2.359 C193.096,0.954 195.011,0.408 196.487,1.146 L288.571,47.188 C289.718,47.761 290.127,49.195 289.455,50.287 L193.803,205.72 L96.902,157.269" fill="#00E483"/>
      <path d="M10.733,5.17 C4.83,2.219 2.83,4.403 6.289,10.024 L96.902,157.269 L193.803,205.72 L97.528,49.273 C97.119,48.607 96.531,48.07 95.832,47.72 L10.733,5.17" fill="#00CD7A"/>
      <path d="M96.902,245.171 C96.902,250.121 93.279,252.36 88.852,250.146 L5.367,208.403 C2.415,206.927 -0,203.02 -0,199.72 L-0,5.804 C-0,2.504 2.415,1.011 5.367,2.487 L95.707,47.658 C96.439,48.024 96.902,48.772 96.902,49.591 L96.902,245.171" fill="#00B67F"/>
    </g>
  </g>
</svg>
